PathFileType	4	(X/Y/Z)	s07c0301.trc
DataRate	CameraRate	NumFrames	NumMarkers	Units	OrigDataRate	OrigDataStartFrame	OrigNumFrames
200	200	4	48	mm	200	250	2000
Frame#	Time	racr			lacr			c7			jug			rlel			rdr			llel			ldr			s2			lic			ric			lasi			rasi			rpsi			lpsi			rgt			lgt			rth1			rth2			rth3			rth4			rlfc			rmfc			rsh1			rsh2			rsh3			rsh4			rlmal			rcal			rtoe			rmt5			lth1			lth2			lth4			lth3			llfc			lmfc			lsh1			lsh2			lsh3			lsh4			llmal			lcal			ltoe			lmt5			SBIKE			LBIKE			RBIKE			
		X1	Y1	Z1	X2	Y2	Z2	X3	Y3	Z3	X4	Y4	Z4	X5	Y5	Z5	X6	Y6	Z6	X7	Y7	Z7	X8	Y8	Z8	X9	Y9	Z9	X10	Y10	Z10	X11	Y11	Z11	X12	Y12	Z12	X13	Y13	Z13	X14	Y14	Z14	X15	Y15	Z15	X16	Y16	Z16	X17	Y17	Z17	X18	Y18	Z18	X19	Y19	Z19	X20	Y20	Z20	X21	Y21	Z21	X22	Y22	Z22	X23	Y23	Z23	X24	Y24	Z24	X25	Y25	Z25	X26	Y26	Z26	X27	Y27	Z27	X28	Y28	Z28	X29	Y29	Z29	X30	Y30	Z30	X31	Y31	Z31	X32	Y32	Z32	X33	Y33	Z33	X34	Y34	Z34	X35	Y35	Z35	X36	Y36	Z36	X37	Y37	Z37	X38	Y38	Z38	X39	Y39	Z39	X40	Y40	Z40	X41	Y41	Z41	X42	Y42	Z42	X43	Y43	Z43	X44	Y44	Z44	X45	Y45	Z45	X46	Y46	Z46	X47	Y47	Z47	X48	Y48	Z48	
250	1.2500	444.145890	1435.540292	-106.683174	424.974537	1425.074201	-384.769153	412.760063	1462.924168	-249.200758	372.714893	1326.552780	-242.940742	522.445613	1122.496904	14.173847	717.327581	910.959104	-73.031083	523.937483	1125.147765	-484.161037	720.619076	907.991593	-418.960010	-148.877172	1210.056238	-251.239766	13.878222	1249.320711	-375.479458	23.203259	1246.159527	-97.753791	49.135487	1173.256777	-363.700786	32.146977	1187.393692	-114.834865	-121.742856	1247.609846	-198.625479	-106.950516	1256.901988	-306.652827	-43.206767	1123.835596	-53.981168	-42.656046	1099.160010	-420.977012	89.536263	1053.943112	-48.473676	174.260969	1032.197660	-57.163720	238.602124	976.065167	-53.419429	189.493047	1061.146844	-73.798954	354.911661	888.280704	-87.655533	351.896291	873.688671	-192.030254	314.565217	750.102360	-65.349923	309.140965	662.744901	-85.985988	265.480223	587.918072	-82.801602	325.339778	662.843899	-122.872651	217.706797	459.801990	-86.144265	152.498251	417.981097	-114.463425	441.829418	401.614978	-129.836956	365.663431	366.985582	-58.671376	21.218785	994.280256	-425.807335	93.060614	943.068478	-427.831344	120.956906	965.851684	-421.138087	130.611047	862.258470	-422.171121	225.820215	710.529817	-386.437262	213.860701	696.955661	-289.584832	127.552097	596.768785	-407.942321	85.103007	524.538415	-386.821859	11.088725	474.292148	-396.061336	87.750222	526.725598	-344.941993	-87.231462	379.980331	-395.399620	-166.553390	355.989512	-361.746837	113.168337	282.600819	-359.185724	29.432738	274.266292	-422.465826	-265.148400	972.898814	-237.773673	-84.191094	79.051652	-437.188550	-84.037167	79.306845	-39.515272	
251	1.2550	444.144830	1435.540175	-106.682712	424.956065	1425.050343	-384.787381	412.705703	1462.936442	-249.181245	372.716896	1326.522799	-242.948329	522.422119	1122.493194	14.181472	717.325905	910.961398	-73.039921	523.918085	1125.120710	-484.181630	720.634783	907.993042	-418.980527	-148.909056	1210.043724	-251.233672	13.879897	1249.273047	-375.485312	23.166337	1246.148622	-97.707679	49.141859	1173.218847	-363.709866	32.130600	1187.351998	-114.829253	-121.775849	1247.593023	-198.635715	-106.953001	1256.888815	-306.676892	-43.211880	1123.832718	-53.975796	-42.659522	1099.141529	-420.969418	89.549490	1053.952325	-48.480293	174.243737	1032.223840	-57.157841	238.625047	976.112091	-53.439559	189.503926	1061.185578	-73.820137	354.931259	888.354777	-87.695646	351.902176	873.758529	-192.045682	314.591964	750.163264	-65.382318	309.176006	662.824303	-85.999127	265.514637	587.969425	-82.824507	325.368872	662.892343	-122.899704	217.735857	459.880681	-86.139347	152.520264	418.037706	-114.476099	441.833785	401.632716	-129.855043	365.650693	367.028846	-58.672412	21.202751	994.260517	-425.784712	93.041207	943.043812	-427.794362	120.939422	965.818745	-421.110916	130.573992	862.223629	-422.151170	225.774103	710.507738	-386.379066	213.807247	696.918514	-289.532013	127.514759	596.746329	-407.935580	85.053416	524.497127	-386.805846	11.061587	474.241699	-396.036487	87.700639	526.681334	-344.886728	-87.252319	379.939199	-395.427376	-166.572540	355.918278	-361.737946	113.178115	282.584317	-359.181731	29.438565	274.224762	-422.458989	-265.145822	972.903024	-237.767501	-84.183677	79.067813	-437.185993	-84.043936	79.303820	-39.505395	
252	1.2600	444.119343	1435.515587	-106.688002	424.952270	1425.040709	-384.874429	412.645358	1462.958600	-249.212442	372.716929	1326.511850	-242.944439	522.389071	1122.467756	14.176659	717.869435	910.960347	-72.443739	523.892509	1125.101354	-484.213882	720.628795	907.980466	-418.980731	-148.922919	1210.031740	-251.261021	19.287164	1254.261302	-391.062930	23.153151	1246.118443	-97.723127	49.114591	1173.183269	-363.690470	32.099579	1187.329659	-114.829297	-121.811902	1247.599548	-198.642539	-106.993612	1256.878229	-306.686022	-43.242454	1123.832007	-53.986130	-42.676230	1099.096626	-420.954933	89.532799	1054.003500	-48.502602	174.235008	1032.254867	-57.205932	238.608340	976.195161	-53.470858	189.479918	1061.254862	-73.825580	354.932398	888.418837	-87.729962	351.909337	873.829149	-192.095708	314.592862	750.238685	-65.409312	309.188092	662.884451	-86.021373	265.551499	588.035341	-82.843581	325.369309	662.947675	-122.933885	217.753107	459.951435	-86.144210	152.534609	418.145132	-114.441069	441.869604	401.628237	-129.857506	365.659834	367.051413	-58.689776	21.178557	994.223294	-425.796425	93.012908	943.013548	-427.768316	120.914738	965.786980	-421.094837	130.536821	862.187389	-422.124488	225.731482	710.467905	-386.332631	213.771444	696.857406	-289.501847	127.460840	596.707862	-407.886769	85.014539	524.448547	-386.773949	11.027477	474.214351	-396.030669	87.695640	526.658862	-344.875315	-87.281818	379.880772	-395.410194	-166.588745	355.839861	-361.733462	113.185473	282.568995	-359.188209	29.445091	274.185600	-422.453561	-265.144022	972.901568	-237.772904	-84.196989	79.067246	-437.201146	-84.036489	79.304531	-39.513937	
253	1.2650	444.103067	1435.476281	-106.637622	424.902242	1424.992128	-384.848997	412.626556	1462.974675	-249.228931	372.718147	1326.481700	-242.944319	522.369887	1122.419168	14.201332	717.907245	910.995987	-72.381290	523.860286	1125.070109	-484.263672	720.030281	907.649040	-418.339698	-148.962676	1210.017170	-251.265578	19.266943	1254.232547	-391.095151	23.132630	1246.108066	-97.698000	49.114084	1173.106299	-363.659466	32.074303	1187.316375	-114.826993	-121.827575	1247.576461	-198.669414	-107.016354	1256.858138	-306.705893	-43.248673	1123.839487	-53.982648	-42.694216	1099.076128	-420.953911	89.536220	1054.017094	-48.510701	174.235608	1032.302045	-57.212455	238.622900	976.242747	-53.510854	189.477537	1061.300441	-73.858467	354.930686	888.486438	-87.745210	351.915440	873.893194	-192.125216	314.638312	750.285226	-65.443762	309.212377	662.965378	-86.053367	265.582597	588.098008	-82.851561	325.375599	662.996081	-122.952218	217.792372	460.021013	-86.153883	152.556208	418.201600	-114.468347	441.860466	401.641186	-129.856561	365.655310	367.075180	-58.690441	21.163347	994.207477	-425.772114	92.982991	942.979255	-427.723309	120.883282	965.737257	-421.061253	130.513270	862.141843	-422.069285	225.676480	710.445960	-386.292111	213.715049	696.831081	-289.478629	127.429268	596.680697	-407.862071	84.960483	524.416724	-386.757615	10.988818	474.171210	-396.007467	87.595346	526.600930	-344.870032	-87.306933	379.851706	-395.402069	-166.616121	355.783362	-361.715754	113.172396	282.563442	-359.200692	29.452411	274.148559	-422.449632	-265.143506	972.896091	-237.758636	-84.183497	79.059661	-437.203682	-84.019186	79.310325	-39.513649	
